<mxfile host="app.diagrams.net" modified="2024-10-13T08:06:42.536Z" agent="Mozilla/5.0 (X11; Linux x86_64) AppleWebKit/537.36 (KHTML, like Gecko) Chrome/128.0.0.0 Safari/537.36" etag="NhOoEDnBKUID6Er9ZDhX" version="24.6.2" type="github">
  <diagram name="第 1 页" id="_Qnomr8P83ZfrpcjQ-iC">
    <mxGraphModel dx="478" dy="257" grid="1" gridSize="10" guides="1" tooltips="1" connect="1" arrows="1" fold="1" page="1" pageScale="1" pageWidth="827" pageHeight="1169" math="0" shadow="0">
      <root>
        <mxCell id="0" />
        <mxCell id="1" parent="0" />
        <mxCell id="CL56Ye9wxCm3pp8kZ5gU-6" value="&lt;b&gt;&lt;font style=&quot;font-size: 30px;&quot;&gt;Vehicle&lt;/font&gt;&lt;/b&gt;" style="whiteSpace=wrap;html=1;" vertex="1" parent="1">
          <mxGeometry x="320" y="240" width="240" height="240" as="geometry" />
        </mxCell>
        <mxCell id="CL56Ye9wxCm3pp8kZ5gU-23" value="" style="group;direction=west;flipH=1;rotation=-180;" vertex="1" connectable="0" parent="1">
          <mxGeometry x="420" y="480" width="40" height="40" as="geometry" />
        </mxCell>
        <mxCell id="CL56Ye9wxCm3pp8kZ5gU-24" value="" style="edgeStyle=none;orthogonalLoop=1;jettySize=auto;html=1;rounded=0;endArrow=none;endFill=0;" edge="1" parent="CL56Ye9wxCm3pp8kZ5gU-23">
          <mxGeometry width="80" relative="1" as="geometry">
            <mxPoint y="40" as="sourcePoint" />
            <mxPoint x="40" y="40" as="targetPoint" />
            <Array as="points">
              <mxPoint x="20" />
            </Array>
          </mxGeometry>
        </mxCell>
        <mxCell id="CL56Ye9wxCm3pp8kZ5gU-25" value="" style="edgeStyle=none;orthogonalLoop=1;jettySize=auto;html=1;rounded=0;endArrow=none;endFill=0;" edge="1" parent="CL56Ye9wxCm3pp8kZ5gU-23">
          <mxGeometry width="80" relative="1" as="geometry">
            <mxPoint y="40" as="sourcePoint" />
            <mxPoint x="40" y="40" as="targetPoint" />
            <Array as="points" />
          </mxGeometry>
        </mxCell>
        <mxCell id="CL56Ye9wxCm3pp8kZ5gU-27" value="" style="group;rotation=90;" vertex="1" connectable="0" parent="1">
          <mxGeometry x="560" y="340" width="40" height="40" as="geometry" />
        </mxCell>
        <mxCell id="CL56Ye9wxCm3pp8kZ5gU-28" value="" style="edgeStyle=none;orthogonalLoop=1;jettySize=auto;html=1;rounded=0;endArrow=none;endFill=0;" edge="1" parent="CL56Ye9wxCm3pp8kZ5gU-27">
          <mxGeometry width="80" relative="1" as="geometry">
            <mxPoint x="40" as="sourcePoint" />
            <mxPoint x="40" y="40" as="targetPoint" />
            <Array as="points">
              <mxPoint y="20" />
            </Array>
          </mxGeometry>
        </mxCell>
        <mxCell id="CL56Ye9wxCm3pp8kZ5gU-29" value="" style="edgeStyle=none;orthogonalLoop=1;jettySize=auto;html=1;rounded=0;endArrow=none;endFill=0;" edge="1" parent="CL56Ye9wxCm3pp8kZ5gU-27">
          <mxGeometry width="80" relative="1" as="geometry">
            <mxPoint x="40" as="sourcePoint" />
            <mxPoint x="40" y="40" as="targetPoint" />
            <Array as="points" />
          </mxGeometry>
        </mxCell>
        <mxCell id="CL56Ye9wxCm3pp8kZ5gU-30" value="" style="group;rotation=-90;" vertex="1" connectable="0" parent="1">
          <mxGeometry x="280" y="340" width="40" height="40" as="geometry" />
        </mxCell>
        <mxCell id="CL56Ye9wxCm3pp8kZ5gU-31" value="" style="edgeStyle=none;orthogonalLoop=1;jettySize=auto;html=1;rounded=0;endArrow=none;endFill=0;" edge="1" parent="CL56Ye9wxCm3pp8kZ5gU-30">
          <mxGeometry width="80" relative="1" as="geometry">
            <mxPoint y="40" as="sourcePoint" />
            <mxPoint as="targetPoint" />
            <Array as="points">
              <mxPoint x="40" y="20" />
            </Array>
          </mxGeometry>
        </mxCell>
        <mxCell id="CL56Ye9wxCm3pp8kZ5gU-32" value="" style="edgeStyle=none;orthogonalLoop=1;jettySize=auto;html=1;rounded=0;endArrow=none;endFill=0;" edge="1" parent="CL56Ye9wxCm3pp8kZ5gU-30">
          <mxGeometry width="80" relative="1" as="geometry">
            <mxPoint y="40" as="sourcePoint" />
            <mxPoint as="targetPoint" />
            <Array as="points" />
          </mxGeometry>
        </mxCell>
        <mxCell id="CL56Ye9wxCm3pp8kZ5gU-33" value="" style="group" vertex="1" connectable="0" parent="1">
          <mxGeometry x="420" y="200" width="40" height="40" as="geometry" />
        </mxCell>
        <mxCell id="CL56Ye9wxCm3pp8kZ5gU-18" value="" style="edgeStyle=none;orthogonalLoop=1;jettySize=auto;html=1;rounded=0;endArrow=none;endFill=0;fillColor=#f8cecc;strokeColor=#b85450;" edge="1" parent="CL56Ye9wxCm3pp8kZ5gU-33">
          <mxGeometry width="80" relative="1" as="geometry">
            <mxPoint as="sourcePoint" />
            <mxPoint x="40" as="targetPoint" />
            <Array as="points">
              <mxPoint x="20" y="40" />
            </Array>
          </mxGeometry>
        </mxCell>
        <mxCell id="CL56Ye9wxCm3pp8kZ5gU-20" value="" style="edgeStyle=none;orthogonalLoop=1;jettySize=auto;html=1;rounded=0;endArrow=none;endFill=0;fillColor=#f8cecc;strokeColor=#b85450;" edge="1" parent="CL56Ye9wxCm3pp8kZ5gU-33">
          <mxGeometry width="80" relative="1" as="geometry">
            <mxPoint as="sourcePoint" />
            <mxPoint x="40" as="targetPoint" />
            <Array as="points" />
          </mxGeometry>
        </mxCell>
        <mxCell id="CL56Ye9wxCm3pp8kZ5gU-34" value="" style="group;direction=west;flipH=1;rotation=45;" vertex="1" connectable="0" parent="1">
          <mxGeometry x="550" y="210" width="40" height="40" as="geometry" />
        </mxCell>
        <mxCell id="CL56Ye9wxCm3pp8kZ5gU-35" value="" style="edgeStyle=none;orthogonalLoop=1;jettySize=auto;html=1;rounded=0;endArrow=none;endFill=0;" edge="1" parent="CL56Ye9wxCm3pp8kZ5gU-34">
          <mxGeometry width="80" relative="1" as="geometry">
            <mxPoint x="48" y="20" as="sourcePoint" />
            <mxPoint x="20" y="-8" as="targetPoint" />
            <Array as="points">
              <mxPoint x="6" y="34" />
            </Array>
          </mxGeometry>
        </mxCell>
        <mxCell id="CL56Ye9wxCm3pp8kZ5gU-36" value="" style="edgeStyle=none;orthogonalLoop=1;jettySize=auto;html=1;rounded=0;endArrow=none;endFill=0;" edge="1" parent="CL56Ye9wxCm3pp8kZ5gU-34">
          <mxGeometry width="80" relative="1" as="geometry">
            <mxPoint x="48" y="20" as="sourcePoint" />
            <mxPoint x="20" y="-8" as="targetPoint" />
            <Array as="points" />
          </mxGeometry>
        </mxCell>
        <mxCell id="CL56Ye9wxCm3pp8kZ5gU-43" value="" style="group;rotation=-135;" vertex="1" connectable="0" parent="1">
          <mxGeometry x="290" y="470" width="40" height="40" as="geometry" />
        </mxCell>
        <mxCell id="CL56Ye9wxCm3pp8kZ5gU-44" value="" style="edgeStyle=none;orthogonalLoop=1;jettySize=auto;html=1;rounded=0;endArrow=none;endFill=0;" edge="1" parent="CL56Ye9wxCm3pp8kZ5gU-43">
          <mxGeometry width="80" relative="1" as="geometry">
            <mxPoint x="20" y="48" as="sourcePoint" />
            <mxPoint x="-8" y="20" as="targetPoint" />
            <Array as="points">
              <mxPoint x="34" y="6" />
            </Array>
          </mxGeometry>
        </mxCell>
        <mxCell id="CL56Ye9wxCm3pp8kZ5gU-45" value="" style="edgeStyle=none;orthogonalLoop=1;jettySize=auto;html=1;rounded=0;endArrow=none;endFill=0;" edge="1" parent="CL56Ye9wxCm3pp8kZ5gU-43">
          <mxGeometry width="80" relative="1" as="geometry">
            <mxPoint x="20" y="48" as="sourcePoint" />
            <mxPoint x="-8" y="20" as="targetPoint" />
            <Array as="points" />
          </mxGeometry>
        </mxCell>
        <mxCell id="CL56Ye9wxCm3pp8kZ5gU-47" value="" style="group;direction=west;flipH=1;rotation=-45;" vertex="1" connectable="0" parent="1">
          <mxGeometry x="290" y="210" width="40" height="40" as="geometry" />
        </mxCell>
        <mxCell id="CL56Ye9wxCm3pp8kZ5gU-48" value="" style="edgeStyle=none;orthogonalLoop=1;jettySize=auto;html=1;rounded=0;endArrow=none;endFill=0;" edge="1" parent="CL56Ye9wxCm3pp8kZ5gU-47">
          <mxGeometry width="80" relative="1" as="geometry">
            <mxPoint x="20" y="-8" as="sourcePoint" />
            <mxPoint x="-8" y="20" as="targetPoint" />
            <Array as="points">
              <mxPoint x="34" y="34" />
            </Array>
          </mxGeometry>
        </mxCell>
        <mxCell id="CL56Ye9wxCm3pp8kZ5gU-49" value="" style="edgeStyle=none;orthogonalLoop=1;jettySize=auto;html=1;rounded=0;endArrow=none;endFill=0;" edge="1" parent="CL56Ye9wxCm3pp8kZ5gU-47">
          <mxGeometry width="80" relative="1" as="geometry">
            <mxPoint x="20" y="-8" as="sourcePoint" />
            <mxPoint x="-8" y="20" as="targetPoint" />
            <Array as="points" />
          </mxGeometry>
        </mxCell>
        <mxCell id="CL56Ye9wxCm3pp8kZ5gU-50" value="" style="group;direction=west;flipH=1;rotation=135;" vertex="1" connectable="0" parent="1">
          <mxGeometry x="550" y="470" width="40" height="40" as="geometry" />
        </mxCell>
        <mxCell id="CL56Ye9wxCm3pp8kZ5gU-51" value="" style="edgeStyle=none;orthogonalLoop=1;jettySize=auto;html=1;rounded=0;endArrow=none;endFill=0;" edge="1" parent="CL56Ye9wxCm3pp8kZ5gU-50">
          <mxGeometry width="80" relative="1" as="geometry">
            <mxPoint x="20" y="48" as="sourcePoint" />
            <mxPoint x="48" y="20" as="targetPoint" />
            <Array as="points">
              <mxPoint x="6" y="6" />
            </Array>
          </mxGeometry>
        </mxCell>
        <mxCell id="CL56Ye9wxCm3pp8kZ5gU-52" value="" style="edgeStyle=none;orthogonalLoop=1;jettySize=auto;html=1;rounded=0;endArrow=none;endFill=0;" edge="1" parent="CL56Ye9wxCm3pp8kZ5gU-50">
          <mxGeometry width="80" relative="1" as="geometry">
            <mxPoint x="20" y="48" as="sourcePoint" />
            <mxPoint x="48" y="20" as="targetPoint" />
            <Array as="points" />
          </mxGeometry>
        </mxCell>
        <mxCell id="CL56Ye9wxCm3pp8kZ5gU-53" value="" style="whiteSpace=wrap;html=1;" vertex="1" parent="1">
          <mxGeometry x="390" y="70" width="100" height="60" as="geometry" />
        </mxCell>
        <mxCell id="CL56Ye9wxCm3pp8kZ5gU-58" value="" style="rhombus;whiteSpace=wrap;html=1;rotation=340;" vertex="1" parent="1">
          <mxGeometry x="610" y="70" width="50" height="130" as="geometry" />
        </mxCell>
        <mxCell id="CL56Ye9wxCm3pp8kZ5gU-60" value="" style="whiteSpace=wrap;html=1;fillColor=#ffe6cc;strokeColor=#d79b00;" vertex="1" parent="1">
          <mxGeometry x="460" y="70" width="30" height="60" as="geometry" />
        </mxCell>
        <mxCell id="CL56Ye9wxCm3pp8kZ5gU-68" value="" style="whiteSpace=wrap;html=1;fillColor=#ffe6cc;strokeColor=#d79b00;" vertex="1" parent="1">
          <mxGeometry x="620" y="90" width="30" height="100" as="geometry" />
        </mxCell>
      </root>
    </mxGraphModel>
  </diagram>
</mxfile>
